# xmcd
#
# Track frame offsets: 
#        150
#        11671
#        23365
#        34360
#        44725
#        61302
#        75623
#        87345
#        97168
#        115500
#        128824
#        145897
#
# Disc length: 2106 seconds
#
# Revision: 0
# Processed by: cddbd v1.5.1PL0 Copyright (c) Steve Scherf et al.
# Submitted via: ExactAudioCopy v0.95a5
#
DISCID=9a08380c
DTITLE=Ray Condo and His Ricochets - High and Wild
DYEAR=1900
DGENRE=Swing
TTITLE0=Fort Worth Stomp
TTITLE1=Be Careful (If You Can't Be Good)
TTITLE2=Done Gone
TTITLE3=Lester Leaps In
TTITLE4=Whatcha Gonna Do Wen There Aint No Swing
TTITLE5=High and Wild
TTITLE6=Baby I Don't Care
TTITLE7=I Flipped
TTITLE8=What Is This Thing Called Love
TTITLE9=Many Tears Ago
TTITLE10=Parchman Farm
TTITLE11=I Can't Find The Doorknob
EXTD=
EXTT0=
EXTT1=
EXTT2=
EXTT3=
EXTT4=
EXTT5=
EXTT6=
EXTT7=
EXTT8=
EXTT9=
EXTT10=
EXTT11=
PLAYORDER=
